<svg width="238.333" height="239.12" viewBox="0 0 178.75 179.34" xmlns="http://www.w3.org/2000/svg" xmlns:xlink="http://www.w3.org/1999/xlink"><defs><symbol id="a" overflow="visible"><path d="M4.563-3.25c0-.781-.047-1.719-.47-2.516-.405-.75-1.093-1-1.593-1-.594 0-1.297.282-1.703 1.157C.469-4.875.422-4.047.422-3.25c0 .781.031 1.516.328 2.25C1.156-.047 1.906.219 2.484.219c.72 0 1.36-.406 1.672-1.094.297-.656.407-1.313.407-2.375zm-.782-.125c0 .656 0 1.297-.187 1.922-.25.906-.781 1.062-1.094 1.062-.531 0-.938-.375-1.14-1.093-.157-.563-.157-1.11-.157-1.891 0-.625 0-1.219.156-1.766.063-.187.313-1.015 1.125-1.015.782 0 1.032.765 1.11.937.187.563.187 1.235.187 1.844z"/></symbol><symbol id="b" overflow="visible"><path d="M4.234 0v-.578h-1.25v-6.188h-.203c-.593.61-1.422.641-1.89.672v.578c.328-.015.797-.03 1.297-.25v5.188H.953V0z"/></symbol><symbol id="c" overflow="visible"><path d="M4.469 0v-.703h-3.25c.312-.281 1.078-1.016 1.39-1.313.188-.172.688-.593.875-.78.454-.438.985-.97.985-1.813 0-1.157-.797-2.157-2.11-2.157-1.14 0-1.703.782-1.937 1.641.11.172.172.234.187.266.016.015.125.14.22.28.202-.765.484-1.546 1.39-1.546.937 0 1.437.75 1.437 1.531 0 .844-.562 1.406-1.156 2.016l-.766.703L.5-.641V0z"/></symbol><symbol id="d" overflow="visible"><path d="M4.563-1.797c0-.906-.704-1.516-1.375-1.734.75-.407 1.093-1.078 1.093-1.72 0-.843-.828-1.515-1.812-1.515-.766 0-1.485.407-1.906 1.11l.359.53a1.674 1.674 0 0 1 1.547-1.062c.516 0 1 .313 1 .938 0 .61-.406 1.203-1.016 1.344-.062.015-.078.015-.781.062v.61h.703c1.078 0 1.297.937 1.297 1.437 0 .766-.469 1.406-1.234 1.406C1.75-.39.968-.734.53-1.42l-.109.609A2.526 2.526 0 0 0 2.47.218c1.203 0 2.094-.968 2.094-2.015z"/></symbol><symbol id="e" overflow="visible"><path d="M4.688-1.703v-.61h-.985v-4.234h-.906L.28-2.312v.609h2.64V0h.782v-1.703zm-1.704-.61H1.063c.515-.859 1.906-3.218 1.921-3.78z"/></symbol><symbol id="f" overflow="visible"><path d="M4.469-2.031c0-1.235-.844-2.219-1.875-2.219-.406 0-.781.14-1.063.406v-2.062h2.61v-.64H.813v3.687h.656c.172-.407.531-.797 1.11-.797.468 0 1.015.422 1.015 1.61 0 1.655-1.219 1.655-1.313 1.655-.672 0-1.28-.39-1.562-.922L.39-.75a2.35 2.35 0 0 0 1.906.969c1.187 0 2.172-.985 2.172-2.25z"/></symbol><symbol id="g" overflow="visible"><path d="M4.563-2.219c0-1.265-.672-2.39-1.625-2.39-.313 0-1.079.078-1.688.828.14-1.61.922-2.406 1.844-2.406.375 0 .687.078 1.047.218v-.593c-.516-.204-.922-.204-1.063-.204-1.406 0-2.656 1.407-2.656 3.563C.422-.391 1.656.219 2.5.219c.594 0 1.031-.235 1.422-.672.437-.516.64-.969.64-1.766zm-.829 0c0 .344 0 .797-.234 1.219-.172.266-.422.61-1 .61-1.047 0-1.203-1.47-1.234-1.798 0-.14 0-.156.015-.28C1.281-3.204 1.72-4 2.547-4c.484 0 .765.25.969.625.203.36.218.719.218 1.156z"/></symbol><symbol id="h" overflow="visible"><path d="M4.563-5.89v-.657H.421v.719h1.89c.126 0 .235-.016.36-.016h1.203C2.406-4.219 1.515-2.219 1.515.11h.844c0-2.984 1.422-5.125 2.203-6z"/></symbol><symbol id="i" overflow="visible"><path d="M4.875-16.359c0 .688.531.938 1.188.984L5.796-8.89h-.313l-2.422-5.235c.422-.218.704-.359.704-.859 0-.688-.485-1.078-1.172-1.078-.703 0-1.172.39-1.172 1.078 0 .547.625.984 1.172.984h.25l.781 5.985c.156.625.437 1.125 1 1.406.203.094.5.906.5 1.437a2.4 2.4 0 0 1-.516 1.47c-.062.093-.172.171-.172.28 0 .032.032.094.063.141.766.688 4.187.766 5.437.766 1.125 0 4.782-.031 5.485-.797.031-.031.062-.078.062-.11 0-.109-.078-.187-.14-.265a2.264 2.264 0 0 1-.547-1.485c0-.5.297-1.343.5-1.437.562-.281.937-.781 1.015-1.406L17.047-14h.265c.532 0 1.172-.437 1.172-.984 0-.687-.468-1.078-1.172-1.078s-1.171.39-1.171 1.078c0 .516.296.656.718.86L14.484-8.89h-.343l-.25-6.485c.656-.046 1.156-.296 1.156-.984s-.485-1.078-1.188-1.078c-.687 0-1.172.39-1.172 1.078 0 .547.344.719.813.906l-2.078 6.266h-.188l-1-6.922c.563-.125.906-.344.906-.938 0-.703-.484-1.078-1.187-1.078-.688 0-1.172.375-1.172 1.078 0 .61.36.844.938.954L8.64-9.187h-.156l-2.11-6.266c.485-.187.86-.36.86-.906 0-.688-.484-1.078-1.172-1.078-.703 0-1.187.39-1.187 1.078z"/></symbol><symbol id="j" overflow="visible"><path d="M8.469-10.375c-.078-.203-1.672-4.828-1.672-4.828.39-.203.594-.64.594-1.078 0-.688-.563-1.344-1.282-1.344-.765 0-1.39.547-1.39 1.328 0 .563.406 1.11.937 1.281L5.36-10h-.015L3.5-13.844c.203-.328.422-.656.422-1.062 0-.735-.64-1.328-1.36-1.328-.734 0-1.28.656-1.28 1.328 0 .64.468 1.265 1.156 1.312.687 5.61.703 5.969.843 6.297.14.36.39.656.657.906.14.11.343.188.468.328.235.282.375.782.375 1.141 0 .437-.078.719-.218.953-.157.281-.454.547-.454.781 0 1.25 4.5 1.297 5.844 1.297 1.36 0 5.89-.047 5.89-1.297 0-.234-.327-.5-.484-.78-.14-.235-.218-.61-.218-.954 0-.375.14-.86.375-1.14.125-.141.328-.22.468-.329.547-.484.844-1.219.844-2l.656-5.203c.688-.047 1.157-.672 1.157-1.312 0-.688-.547-1.328-1.282-1.328-.718 0-1.359.593-1.359 1.328 0 .484.219.718.438 1.062-.782 1.594-1.454 2.922-1.86 3.844h-.015l-.297-5.016c.53-.172.937-.718.937-1.28 0-.782-.594-1.329-1.375-1.329-.719 0-1.297.625-1.297 1.328 0 .438.203.89.594 1.094l-1.672 4.828c-.828-4.844-.828-4.828-.937-5.39.359-.157.78-.626.78-1.204 0-.328-.124-.64-.312-.875a1.335 1.335 0 0 0-1.03-.468c-.704 0-1.329.609-1.329 1.343 0 .532.36 1.016.766 1.266-.063.406-.922 5.328-.922 5.328zm1.484-5.938c-.328 0-.656-.328-.656-.656 0-.343.328-.656.656-.656.344 0 .672.313.672.656 0 .328-.328.657-.672.657zm-4.547 0c0-.343.313-.64.657-.64.328 0 .656.344.656.672 0 .344-.328.64-.656.64-.344 0-.657-.343-.657-.671zm7.797.016c0-.36.328-.656.656-.656.282 0 .657.234.657.656s-.297.656-.657.656-.656-.343-.656-.656zm-10.609.735c.328 0 .656.328.656.656 0 .344-.328.656-.656.656a.682.682 0 0 1-.656-.656c0-.328.312-.656.656-.656zm14.078.656c0-.36.328-.656.656-.656.282 0 .657.28.657.656 0 .437-.328.656-.657.656a.66.66 0 0 1-.656-.656zM3.188-12.891l1.938 3.985-.828-.078c-.25 0-.438.234-.579.375zm12.484 3.907c-.328.015-.531.062-.875.062l1.922-3.969-.39 4.297c-.344-.015-.454-.375-.657-.39zM9-9.484l.953-5.5h.032l.937 5.5a2.763 2.763 0 0 1-.562-.313c-.125-.11-.235-.25-.407-.25-.156 0-.265.14-.39.25-.156.11-.36.234-.563.313zm-3 .359.297-5.438L8.11-9.297c-.235 0-.5-.047-.72-.125-.14-.062-.296-.187-.452-.187-.188.03-.297.14-.422.218-.156.11-.344.203-.516.266zm5.813-.172 1.812-5.281.297 5.453a2.306 2.306 0 0 1-.515-.266c-.125-.078-.235-.187-.375-.218-.204 0-.36.125-.5.187a2.242 2.242 0 0 1-.72.125zm-7.953 1.5c.125-.187.328-.344.547-.469h.671c1.313-.015 1.61-.578 1.891-.578.125 0 .719.219 1.156.219.782 0 1.39-.344 1.578-.484.157-.094.203-.094.25-.094.094 0 .141.062.203.094.5.296 1.047.484 1.625.484.266 0 1.172-.203 1.125-.234.657.312 1.157.546 1.86.609.094 0 .437-.031.61-.031.28 0 .624.328.687.547-.11.468-.406.796-.781.968-1.782-.468-3.532-.718-5.329-.718-1.765 0-4.328.39-5.296.718-.438-.203-.797-.578-.797-1.03zm1.28 1.594c1.829-.406 3.063-.594 4.813-.594 1.766 0 2.453.078 4.828.594l-.296.969c-1.453-.47-2.97-.688-4.532-.688-1.53 0-3.062.219-4.515.688zm.345 1.687c1.406-.5 2.968-.718 4.468-.718 1.516 0 3.422.312 4.485.718l.203.594c-1.531-.234-3.125-.297-4.688-.297-1.546 0-3.14.063-4.671.297zM4.922-3.14c1.594-.359 3.281-.406 5.031-.406 1.766 0 3.36.016 5.047.406-1.61.532-3.36.578-5.047.578s-3.422-.062-5.03-.578z"/></symbol><symbol id="k" overflow="visible"><path d="M4.781-16.562c0 .688.531 1.25 1.188 1.281L5.64-8.937h-.016l-2.484-5.094c.421-.219.718-.656.718-1.156a1.28 1.28 0 0 0-1.265-1.266c-.703 0-1.281.579-1.281 1.266 0 .703.578 1.281 1.28 1.281h.157l.75 5.89c.172.626.562 1.126 1.125 1.407.203.094.5.906.5 1.438a2.4 2.4 0 0 1-.516 1.468c-.062.094-.172.172-.172.282 0 .03.032.093.063.14.766.688 4.187.766 5.437.766 1.125 0 4.782-.031 5.485-.797.031-.031.062-.078.062-.11 0-.109-.078-.187-.14-.265a2.264 2.264 0 0 1-.547-1.484c0-.5.297-1.344.5-1.438.562-.281 1.031-.781 1.125-1.406l.734-5.89h.156c.704 0 1.282-.579 1.282-1.282 0-.687-.578-1.266-1.282-1.266s-1.28.579-1.28 1.266c0 .531.296.969.718 1.156l-2.453 5.094h-.016l-.343-6.344c.671-.031 1.203-.594 1.203-1.281s-.578-1.266-1.282-1.266a1.28 1.28 0 0 0-1.265 1.266c0 .547.328 1.031.812 1.203L11.36-9.296h-.03l-1.095-6.72c.563-.124 1-.64 1-1.234 0-.703-.578-1.28-1.28-1.28-.688 0-1.266.577-1.266 1.28 0 .61.453 1.157 1.03 1.25L8.564-9.296 6.5-15.36a1.3 1.3 0 0 0 .828-1.203 1.28 1.28 0 0 0-1.265-1.266c-.703 0-1.282.578-1.282 1.266zm.86 13.078c-.11 0-.282-.078-.282-.234 0-.172.063-.25.282-.344C6-4.218 7.297-4.64 9.953-4.64c2.672 0 3.969.422 4.328.578.219.094.281.172.281.344 0 .156-.171.234-.28.234-.282 0-.938-.594-4.329-.594-3.375 0-4.031.594-4.312.594zM5.5-6.609c0-.156.125-.266.234-.328.625-.281 2.282-.766 4.22-.766 1.952 0 3.609.485 4.234.766.109.062.234.172.234.328s-.172.219-.234.219c-.422 0-1.641-.766-4.235-.766-2.578 0-3.797.766-4.219.766-.062 0-.234-.063-.234-.219zm.719 1.781c-.11 0-.266-.047-.266-.219 0-.156.125-.234.266-.312.656-.36 2.187-.781 3.703-.781s3.125.422 3.781.78c.14.08.266.157.266.313 0 .172-.157.22-.266.22-.328 0-1.594-.75-3.75-.75-2.14 0-3.406.75-3.734.75z"/></symbol></defs><path fill="#fff" d="M0 0h178.75v179.34H0z"/><g fill="#b8b8b8"><path d="M9.68 28.683h19.926V8.757H9.68zM49.532 28.683h19.926V8.757H49.532zM89.384 28.683h19.926V8.757H89.384zM129.24 28.683h19.926V8.757H129.24zM29.606 48.609h19.926V28.683H29.606zM69.458 48.609h19.926V28.683H69.458zM109.31 48.609h19.926V28.683H109.31zM149.16 48.609h19.926V28.683H149.16zM9.68 68.535h19.926V48.609H9.68zM49.532 68.535h19.926V48.609H49.532zM89.384 68.535h19.926V48.609H89.384zM129.24 68.535h19.926V48.609H129.24zM29.606 88.46h19.926V68.534H29.606zM69.458 88.46h19.926V68.534H69.458zM109.31 88.46h19.926V68.534H109.31z"/><path d="M149.16 88.46h19.926V68.534H149.16zM9.68 108.38h19.926V88.458H9.68zM49.532 108.38h19.926V88.458H49.532zM89.384 108.38h19.926V88.458H89.384z"/><path d="M129.24 108.38h19.926V88.458H129.24zM29.606 128.31h19.926v-19.926H29.606zM69.458 128.31h19.926v-19.926H69.458zM109.31 128.31h19.926v-19.926H109.31zM149.16 128.31h19.926v-19.926H149.16zM9.68 148.23h19.926v-19.926H9.68zM49.532 148.23h19.926v-19.926H49.532zM89.384 148.23h19.926v-19.926H89.384z"/><path d="M129.24 148.23h19.926v-19.926H129.24zM29.606 168.16h19.926v-19.926H29.606zM69.458 168.16h19.926v-19.926H69.458zM109.31 168.16h19.926v-19.926H109.31zM149.16 168.16h19.926v-19.926H149.16z"/></g><path d="M9.68 8.757h159.41v159.4H9.68z" fill="none" stroke="#b8b8b8" stroke-miterlimit="10" stroke-width=".399"/><g transform="translate(-158.96 -135.97)"><use x="176.11" y="142.735" xlink:href="#a"/><use x="196.035" y="142.735" xlink:href="#b"/><use x="215.961" y="142.735" xlink:href="#c"/><use x="235.886" y="142.735" xlink:href="#d"/><use x="255.811" y="142.735" xlink:href="#e"/><use x="275.736" y="142.735" xlink:href="#f"/><use x="295.662" y="142.735" xlink:href="#g"/><use x="315.587" y="142.735" xlink:href="#h"/><use x="158.675" y="157.679" xlink:href="#a"/><use x="333.021" y="157.679" xlink:href="#a"/><use x="158.675" y="177.604" xlink:href="#b"/><use x="333.021" y="177.604" xlink:href="#b"/><use x="158.675" y="197.529" xlink:href="#c"/><use x="333.021" y="197.529" xlink:href="#c"/><use x="158.675" y="217.454" xlink:href="#d"/></g><use x="208.488" y="224.428" xlink:href="#i" fill="#fff" transform="translate(-158.96 -135.97)"/><g transform="translate(-158.96 -135.97)"><use x="208.488" y="224.428" xlink:href="#j"/><use x="333.021" y="217.454" xlink:href="#d"/><use x="158.675" y="237.38" xlink:href="#e"/><use x="333.021" y="237.38" xlink:href="#e"/><use x="158.675" y="257.305" xlink:href="#f"/><use x="333.021" y="257.305" xlink:href="#f"/><use x="158.675" y="277.23" xlink:href="#g"/></g><use x="268.264" y="284.204" xlink:href="#i" fill="#fff" transform="translate(-158.96 -135.97)"/><g transform="translate(-158.96 -135.97)"><use x="268.264" y="284.204" xlink:href="#k"/><use x="333.021" y="277.23" xlink:href="#g"/><use x="158.675" y="297.156" xlink:href="#h"/><use x="333.021" y="297.156" xlink:href="#h"/><use x="176.11" y="315.088" xlink:href="#a"/><use x="196.035" y="315.088" xlink:href="#b"/><use x="215.961" y="315.088" xlink:href="#c"/><use x="235.886" y="315.088" xlink:href="#d"/><use x="255.811" y="315.088" xlink:href="#e"/><use x="275.736" y="315.088" xlink:href="#f"/><use x="295.662" y="315.088" xlink:href="#g"/><use x="315.587" y="315.088" xlink:href="#h"/></g><path d="M134.22 138.27c0-8.254-6.691-14.945-14.945-14.945-8.254 0-14.945 6.691-14.945 14.945 0 8.254 6.691 14.945 14.945 14.945 8.254 0 14.945-6.691 14.945-14.945z" fill="none" stroke="#f04c19" stroke-miterlimit="10" stroke-width="1.993"/><path d="M37.575 78.495H25.38" fill="none" stroke="#7f7f7f" stroke-linecap="round" stroke-miterlimit="10" stroke-width="1.196"/><path d="M19.641 78.495c1.7.32 4.465 1.277 6.375 2.39v-4.78c-1.91 1.117-4.676 2.07-6.375 2.39" fill="#7f7f7f"/><path d="M81.411 78.495h71.973" fill="none" stroke="#7f7f7f" stroke-linecap="round" stroke-miterlimit="10" stroke-width="1.196"/><path d="M159.12 78.495c-1.703-.32-4.465-1.273-6.375-2.39v4.78c1.91-1.113 4.672-2.07 6.375-2.39" fill="#7f7f7f"/><path d="M59.493 56.578V24.457" fill="none" stroke="#7f7f7f" stroke-linecap="round" stroke-miterlimit="10" stroke-width="1.196"/><path d="M59.493 18.718c-.32 1.703-1.273 4.465-2.39 6.379h4.78c-1.113-1.914-2.07-4.676-2.39-6.379" fill="#7f7f7f"/><path d="M59.493 100.41v52.047" fill="none" stroke="#7f7f7f" stroke-linecap="round" stroke-miterlimit="10" stroke-width="1.196"/><path d="M59.493 158.2c.32-1.7 1.277-4.465 2.39-6.375h-4.78c1.117 1.91 2.07 4.676 2.39 6.375" fill="#7f7f7f"/><path d="M38.157 57.16 23.7 42.703" fill="none" stroke="#7f7f7f" stroke-linecap="round" stroke-miterlimit="10" stroke-width="1.196"/><path d="M19.641 38.644c.977 1.43 2.254 4.059 2.82 6.2l3.38-3.38c-2.141-.566-4.77-1.844-6.2-2.82" fill="#7f7f7f"/><path d="m80.829 57.16 34.383-34.383" fill="none" stroke="#7f7f7f" stroke-linecap="round" stroke-miterlimit="10" stroke-width="1.196"/><path d="M119.27 18.718c-1.43.977-4.059 2.254-6.2 2.82l3.384 3.38c.562-2.141 1.84-4.77 2.816-6.2" fill="#7f7f7f"/><path d="M38.157 99.831 23.7 114.288" fill="none" stroke="#7f7f7f" stroke-linecap="round" stroke-miterlimit="10" stroke-width="1.196"/><path d="M19.641 118.35c1.43-.977 4.059-2.254 6.2-2.816l-3.38-3.383c-.566 2.14-1.843 4.77-2.82 6.199" fill="#7f7f7f"/><path d="m67.946 86.949 35.176 35.176" fill="none" stroke="#f04c19" stroke-linecap="round" stroke-miterlimit="10" stroke-width="1.993"/><path d="M108.7 127.71c-1.344-1.965-3.102-5.582-3.875-8.527l-4.652 4.652c2.945.773 6.562 2.531 8.527 3.875" fill="#f04c19"/></svg>